# xmcd
#
# Track frame offsets:
#	183
#	17103
#	31015
#	41998
#	60690
#	71680
#	88528
#	100918
#	114653
#	126078
#	145318
#	180785
#	208408
#	222453
#	239058
#
# Disc length: 3515 seconds
#
# Revision: 11
# Processed by: cddbd v1.5.2PL0 Copyright (c) Steve Scherf et al.
# Submitted via: audiograbber 1.83.01
#
DISCID=e10db90f
DTITLE=Schürzenjäger - Rebellion In Den Alpen Live CD2
DYEAR=1994
DGENRE=Folk
TTITLE0=Wenn Die Nacht Kommt
TTITLE1=Dafür Mach Ma Musik
TTITLE2=Zillertaler Hochzeitsmarsch (Tramplan)
TTITLE3=Alle Sirenen Gingen Los
TTITLE4=Typisch Für Mi
TTITLE5=Auf Einmal Warst Du Da
TTITLE6=Der Jodelautomat (Japaner)
TTITLE7=Highway Crew
TTITLE8=Jede Nacht A Lange Nacht
TTITLE9=Jeden Herzschlag Wert (Für Anni)
TTITLE10=Rock-Potpourri
TTITLE11=Großer Manitou
TTITLE12=Willkommen Europa
TTITLE13=Schürzenjägerzeit
TTITLE14=Sierra Madre
EXTD=
EXTT0=
EXTT1=
EXTT2=
EXTT3=
EXTT4=
EXTT5=
EXTT6=
EXTT7=
EXTT8=
EXTT9=
EXTT10=
EXTT11=
EXTT12=
EXTT13=
EXTT14=
PLAYORDER=
